# xmcd
#
# Track frame offsets:
#  183
#  26415
#  37893
#  51548
#  65823
#  79055
#  89835
#  100438
#  111540
#  124373
#  136740
#  149753
#  165320
#  176573
#  189955
#  203220
#  217973
#  230975
#  244355
#  259968
#
# Disc length: 3657 seconds
#
# Revision: 1
# Processed by: cddbd v1.5.2PL0 Copyright (c) Steve Scherf et al.
# Submitted via: Collectorz.com_Music_Collector 6.11
#
DISCID=3a0e4714
DTITLE=Various Artist - The Mambo Kings Play Songs Of Love
DYEAR=2001
DGENRE=Chanson - Latin
TTITLE0=Celia Cruz - La Dicha Mia
TTITLE1=Tito Puente and His Orchestra - Mambo Inn
TTITLE2=Machito - Sentimental Mambo
TTITLE3=Tito Puente and His Orchestra - Ran Kan Kan
TTITLE4=Tito Puente and His Orchestra - Mambolino
TTITLE5=Machito - Mamboscope
TTITLE6=Tito Puente - Coco Seco
TTITLE7=Celia Cruz Con La Sonora Matancera - Tamborilero
TTITLE8=Tito Puente and His Orchestra\ - Mambo Gallego
TTITLE9=Machito - Don't Tease Me
TTITLE10=Tito Puente - Mambo Lenko
TTITLE11=Tito Rodriguez and His Orchestra - A Santa Barbara
TTITLE12=Machito - Circumstance
TTITLE13=Tito Puente - Mambo with Me
TTITLE14=Machito - The Jamaican
TTITLE15=Tito Puente - Mambiando
TTITLE16=Celia Cruz Con La Sonora Matancera - Mambo Del Amor
TTITLE17=Tito Puente and His Orchestra - Mambo Tipico
TTITLE18=Tito Puente and His Orchestra - La Bochinchera
TTITLE19=Machito - Relax And Mambo
EXTD=
EXTT0=
EXTT1=
EXTT2=
EXTT3=
EXTT4=
EXTT5=
EXTT6=
EXTT7=
EXTT8=
EXTT9=
EXTT10=
EXTT11=
EXTT12=
EXTT13=
EXTT14=
EXTT15=
EXTT16=
EXTT17=
EXTT18=
EXTT19=
PLAYORDER=
